<svg xmlns="http://www.w3.org/2000/svg" viewBox="0 0 500 500"><g id="freepik--background-complete--inject-106"><path d="M41.26,184.57a731.06,731.06,0,0,1,102.09-12.43c4.29-.23,8.57-.38,12.86-.57s8.58-.22,12.86-.34,8.58-.07,12.87-.1c2.15,0,4.29,0,6.44,0s4.31.15,6.45.32c8.57.68,17.08,1.92,25.54,3.33s16.9,3,25.3,4.74c33.6,7,66.9,15.31,100.1,23.94q24.89,6.51,49.7,13.34T445,230.89q-24.76-7-49.62-13.62T345.6,204.11c-33.22-8.53-66.53-16.73-100.12-23.62-8.4-1.69-16.81-3.36-25.26-4.78s-16.93-2.71-25.46-3.4q-3.19-.27-6.39-.34c-2.14,0-4.29,0-6.43,0-4.28,0-8.57-.07-12.85.06s-8.57.12-12.86.29-8.56.31-12.84.52q-25.69,1.27-51.25,4.25C75.1,179,58.1,181.34,41.26,184.57Z" style="fill:#ebebeb"></path><path d="M44,162.37c17-.43,34-.71,51-.93s34-.23,51-.23l25.51.09,12.75.09c2.13,0,4.25,0,6.38.09s4.26.13,6.38.29c8.5.56,17,1.49,25.4,2.58s16.86,2.27,25.26,3.6c33.59,5.31,67,11.64,100.38,18.17q25,4.94,50,10.12T447.92,207q-25-5.25-50-10.25t-50-9.94c-33.39-6.43-66.82-12.65-100.42-17.84q-12.59-2-25.22-3.66c-8.42-1.11-16.87-2.06-25.33-2.65-2.12-.17-4.23-.24-6.35-.31s-4.25-.07-6.37-.11l-12.75-.14-25.5-.17q-25.5-.09-51,.06C78,162,61,162.11,44,162.37Z" style="fill:#ebebeb"></path><path d="M47.17,136.74l50.66,4,50.64,4.15,25.32,2.07c8.44.7,16.89,1.32,25.32,2.21,4.22.38,8.42.93,12.63,1.39s8.42,1,12.62,1.5q12.62,1.54,25.2,3.22c33.58,4.51,67.11,9.35,100.63,14.25L400.45,177l50.22,7.74L350.09,170.16c-33.53-4.79-67.07-9.52-100.66-13.92C232.65,154,215.85,151.81,199,150c-8.41-.91-16.86-1.57-25.29-2.3l-25.32-2.16-50.62-4.31Z" style="fill:#ebebeb"></path><path d="M51.58,101.08c16.29,4.78,32.72,9.07,49.19,13.15s33,8,49.61,11.48l12.46,2.58,12.49,2.46c4.16.83,8.34,1.55,12.51,2.34s8.35,1.5,12.54,2.13c16.77,2.52,33.65,4.37,50.52,6.21,33.75,3.66,67.56,6.76,101.38,9.73L403,155.44l50.76,4.17L403,155.92q-25.38-2-50.76-4.11c-33.83-2.85-67.65-5.85-101.42-9.4q-12.68-1.33-25.31-2.91c-8.43-1-16.85-2.14-25.24-3.44-4.2-.64-8.39-1.38-12.56-2.18s-8.35-1.53-12.51-2.38L162.7,129l-12.47-2.62C117,119.19,84.09,110.9,51.58,101.08Z" style="fill:#ebebeb"></path><path d="M55.75,67.37q22.89,12,46.44,22.55c15.66,7.12,31.52,13.84,47.67,19.76s32.64,11,49.63,13.7,34.08,4.66,51.2,6.29q51.4,4.77,103,6.29c8.6.32,17.2.41,25.8.59l12.91.07,6.45,0,6.45-.06c17.21-.14,34.43-.53,51.56-2.26-17.11,1.89-34.34,2.44-51.55,2.74l-6.46.1h-6.45l-12.91,0c-8.61-.15-17.22-.22-25.82-.5q-51.63-1.38-103.11-6c-17.14-1.69-34.26-3.61-51.25-6.47s-33.57-8-49.72-13.9C117.35,98.26,86.16,83.49,55.75,67.37Z" style="fill:#ebebeb"></path><path d="M229.54,144a5,5,0,1,1-2.44-6.69A5,5,0,0,1,229.54,144Z" style="fill:#ebebeb"></path><rect x="231.24" y="118.94" width="3.85" height="25.33" transform="translate(77.35 -86.13) rotate(24.97)" style="fill:#ebebeb"></rect><path d="M247.41,144.19A5,5,0,1,1,245,137.5,5,5,0,0,1,247.41,144.19Z" style="fill:#ebebeb"></path><rect x="249.11" y="119.18" width="3.85" height="25.33" transform="translate(79.13 -93.65) rotate(24.97)" style="fill:#ebebeb"></rect><polygon points="258.11 121.23 235.33 122.39 236.76 119.31 259.54 118.16 258.11 121.23" style="fill:#ebebeb"></polygon><polygon points="255.41 127.02 232.64 128.17 234.07 125.1 256.84 123.94 255.41 127.02" style="fill:#ebebeb"></polygon><path d="M415.65,202a4.26,4.26,0,1,1-2.07-5.66A4.27,4.27,0,0,1,415.65,202Z" style="fill:#ebebeb"></path><rect x="417.08" y="180.81" width="3.25" height="21.42" transform="translate(119.99 -158.86) rotate(24.97)" style="fill:#ebebeb"></rect><path d="M430.76,202.17a4.26,4.26,0,1,1-2.06-5.66A4.26,4.26,0,0,1,430.76,202.17Z" style="fill:#ebebeb"></path><rect x="432.2" y="181.02" width="3.25" height="21.42" transform="translate(121.49 -165.22) rotate(24.97)" style="fill:#ebebeb"></rect><polygon points="439.81 182.75 420.55 183.72 421.76 181.13 441.02 180.15 439.81 182.75" style="fill:#ebebeb"></polygon><path d="M131,122.69A4.26,4.26,0,1,1,128.9,117,4.27,4.27,0,0,1,131,122.69Z" style="fill:#ebebeb"></path><rect x="132.4" y="101.54" width="3.25" height="21.42" transform="translate(59.91 -46.09) rotate(24.97)" style="fill:#ebebeb"></rect><path d="M146.08,122.89a4.26,4.26,0,1,1-2.06-5.66A4.25,4.25,0,0,1,146.08,122.89Z" style="fill:#ebebeb"></path><rect x="147.52" y="101.74" width="3.25" height="21.42" transform="translate(61.41 -52.45) rotate(24.97)" style="fill:#ebebeb"></rect><polygon points="155.13 103.47 135.87 104.45 137.08 101.85 156.34 100.87 155.13 103.47" style="fill:#ebebeb"></polygon><path d="M327,182a5,5,0,1,1-2.44-6.69A5,5,0,0,1,327,182Z" style="fill:#ebebeb"></path><rect x="328.67" y="157.04" width="3.85" height="25.33" transform="translate(102.54 -123.7) rotate(24.97)" style="fill:#ebebeb"></rect><rect x="347.07" y="157.48" width="3.85" height="7.32" transform="translate(100.66 -132.27) rotate(24.97)" style="fill:#ebebeb"></rect><polygon points="351.88 159.52 332.77 160.48 334.2 157.41 353.31 156.45 351.88 159.52" style="fill:#ebebeb"></polygon><polygon points="349.18 165.31 330.07 166.26 331.5 163.19 350.61 162.24 349.18 165.31" style="fill:#ebebeb"></polygon><path d="M387.11,138.24a3.16,3.16,0,1,1-1.73-4.12A3.17,3.17,0,0,1,387.11,138.24Z" style="fill:#ebebeb"></path><rect x="387.81" y="122.45" width="2.41" height="15.89" transform="translate(78.6 -137.89) rotate(22.31)" style="fill:#ebebeb"></rect><rect x="399.1" y="122.2" width="2.41" height="4.59" transform="translate(77.21 -142.63) rotate(22.31)" style="fill:#ebebeb"></rect><polygon points="402.06 123.4 390.11 124.56 390.92 122.59 402.87 121.43 402.06 123.4" style="fill:#ebebeb"></polygon><polygon points="400.54 127.1 388.59 128.26 389.4 126.29 401.35 125.14 400.54 127.1" style="fill:#ebebeb"></polygon><path d="M113.15,175.11a3.16,3.16,0,1,1-1.72-4.12A3.16,3.16,0,0,1,113.15,175.11Z" style="fill:#ebebeb"></path><rect x="113.86" y="159.32" width="2.41" height="15.89" transform="translate(72.09 -31.16) rotate(22.31)" style="fill:#ebebeb"></rect><rect x="125.14" y="159.07" width="2.41" height="4.59" transform="translate(70.71 -35.88) rotate(22.31)" style="fill:#ebebeb"></rect><polygon points="128.11 160.27 116.16 161.42 116.97 159.46 128.91 158.3 128.11 160.27" style="fill:#ebebeb"></polygon><polygon points="126.59 163.97 114.64 165.13 115.44 163.16 127.39 162.01 126.59 163.97" style="fill:#ebebeb"></polygon><path d="M249.68,182.7a3.16,3.16,0,1,1-1.73-4.13A3.16,3.16,0,0,1,249.68,182.7Z" style="fill:#ebebeb"></path><rect x="250.38" y="166.91" width="2.41" height="15.89" transform="translate(85.19 -82.4) rotate(22.31)" style="fill:#ebebeb"></rect><rect x="261.67" y="166.66" width="2.41" height="4.59" transform="translate(83.8 -87.14) rotate(22.31)" style="fill:#ebebeb"></rect><polygon points="264.63 167.85 252.68 169.01 253.49 167.04 265.44 165.89 264.63 167.85" style="fill:#ebebeb"></polygon><polygon points="263.11 171.56 251.16 172.72 251.97 170.75 263.92 169.59 263.11 171.56" style="fill:#ebebeb"></polygon><path d="M90.29,127.21a4.93,4.93,0,0,1-4.18,1.34A8.94,8.94,0,0,1,81.84,127,7.73,7.73,0,0,1,79,123.49a8.62,8.62,0,0,1-.41-4.58,11.94,11.94,0,0,1,4.65-7.79,12.2,12.2,0,0,1,9-1.91,15.06,15.06,0,0,1,8.25,4.16,13.3,13.3,0,0,1,3.94,8.4,22.52,22.52,0,0,1-1.47,9.17,18.56,18.56,0,0,1-5.31,7.68A16.69,16.69,0,0,1,89,142.36a23.39,23.39,0,0,1-17.58-5.21,21.41,21.41,0,0,1-5.68-7.48,20.75,20.75,0,0,1-1.85-9.22,23.13,23.13,0,0,1,2.26-9.11,29.53,29.53,0,0,1,5.37-7.63,62.92,62.92,0,0,1,6.88-6.1c4.8-3.73,9.84-7,14.33-10.93a43.17,43.17,0,0,0,6.11-6.36,16.5,16.5,0,0,0,3.44-7.69,7.5,7.5,0,0,0-.54-3.92,4.58,4.58,0,0,0-2.65-2.5,3.9,3.9,0,0,0-3.48.58,7.33,7.33,0,0,0-2.4,3.14,40.68,40.68,0,0,0-1.89,8.58c-.43,3-.79,5.95-1.13,8.94-1.32,12-2.3,24-3.54,36-.65,6-1.34,12-2.23,18-.45,3-1,6-1.61,8.92a29.24,29.24,0,0,1-1.25,4.36,5.76,5.76,0,0,1-3.33,2.93,5.66,5.66,0,0,0,3.18-3,29.39,29.39,0,0,0,1.09-4.37c.57-2.95,1-5.93,1.36-8.92.73-6,1.26-12,1.75-18,1-12,1.84-24,3-36.07.29-3,.6-6,1-9,.2-1.5.44-3,.72-4.51a22,22,0,0,1,1.25-4.54,9.12,9.12,0,0,1,3-3.95,5.78,5.78,0,0,1,5.12-.84,6.49,6.49,0,0,1,3.8,3.49,9.27,9.27,0,0,1,.72,4.93,18.14,18.14,0,0,1-3.77,8.66A45,45,0,0,1,94,88.21c-4.6,4-9.65,7.41-14.37,11.07S70.44,107,67.94,112.21a21.15,21.15,0,0,0-2.12,8.31,18.82,18.82,0,0,0,1.64,8.36,19.3,19.3,0,0,0,5.15,6.83,21.06,21.06,0,0,0,7.56,4.09,21.88,21.88,0,0,0,8.58.8,14.87,14.87,0,0,0,7.8-3.23c4.46-3.63,6.66-9.76,6.51-15.5a12.13,12.13,0,0,0-3.47-7.68,14.27,14.27,0,0,0-7.58-4A10.63,10.63,0,0,0,79.11,119a8.07,8.07,0,0,0,.27,4.33A7.34,7.34,0,0,0,82,126.78a8.63,8.63,0,0,0,4.11,1.62A4.87,4.87,0,0,0,90.29,127.21Z" style="fill:#ebebeb"></path><path d="M81.12,155.37a5,5,0,1,1-1.76-6.91A5,5,0,0,1,81.12,155.37Z" style="fill:#ebebeb"></path><rect x="408.98" width="1" height="94.49" style="fill:#c7c7c7"></rect><polygon points="368.08 134.4 371.41 141.72 447.56 141.72 450.88 134.4 418.46 111.96 400.5 111.96 368.08 134.4" style="fill:#ebebeb"></polygon><polygon points="398.25 90.34 400.5 111.96 418.46 111.96 420.71 90.34 398.25 90.34" style="fill:#dbdbdb"></polygon><polygon points="368.08 134.4 371.41 141.72 447.56 141.72 450.88 134.4 368.08 134.4" style="fill:#dbdbdb"></polygon><rect x="335.19" width="1" height="70.88" style="fill:#c7c7c7"></rect><polygon points="294.29 110.78 297.62 118.1 373.77 118.1 377.09 110.78 344.67 88.34 326.71 88.34 294.29 110.78" style="fill:#ebebeb"></polygon><polygon points="324.46 66.72 326.71 88.34 344.67 88.34 346.92 66.72 324.46 66.72" style="fill:#dbdbdb"></polygon><polygon points="294.29 110.79 297.62 118.11 373.77 118.11 377.09 110.79 294.29 110.79" style="fill:#dbdbdb"></polygon><path d="M87.59,298.56l-13.12.27-6.66.12c-2.23,0-4.47,0-6.7.05h-.44v-.44l-.06-11.19v-.51h.5l13.24.06c4.42,0,8.83.11,13.24.16h.28v.27c0,1.89-.09,3.78-.13,5.65Zm0,0-.14-5.66c0-1.86-.11-3.7-.13-5.53l.27.27c-4.41.05-8.82.16-13.24.16l-13.24.07.5-.5,0,11.19-.45-.45c2.18,0,4.36,0,6.55.05l6.58.12Z" style="fill:#ebebeb"></path><path d="M72.82,312.67l-13.12.27-6.66.12c-2.23,0-4.47,0-6.7.05H45.9v-.44l-.06-11.19V301h.5l13.24.06c4.41,0,8.83.11,13.24.16h.28v.27c0,1.89-.08,3.78-.13,5.65Zm0,0L72.68,307c-.05-1.86-.11-3.7-.13-5.53l.27.27c-4.41.05-8.83.16-13.24.16L46.34,302l.5-.49-.05,11.19-.45-.45c2.18,0,4.36,0,6.55,0l6.58.12Z" style="fill:#ebebeb"></path><path d="M227.06,207.46l-13.12.28-6.66.11c-2.23.05-4.46,0-6.7.06h-.44v-.45l-.06-11.19v-.5h.5l13.24.06c4.42,0,8.83.12,13.24.17h.28v.27c0,1.9-.09,3.79-.13,5.65Zm0,0-.14-5.65c0-1.87-.11-3.71-.13-5.54l.27.27c-4.41.06-8.82.16-13.24.17l-13.24.06.5-.5L201,207.46l-.45-.44c2.19,0,4.36,0,6.55,0l6.58.11Z" style="fill:#ebebeb"></path><path d="M212.29,221.57l-13.12.28-6.66.11c-2.23,0-4.47,0-6.7.06h-.44v-.45l-.06-11.19v-.5h.5l13.24.06c4.42,0,8.83.12,13.24.17h.28v.27c0,1.9-.09,3.79-.14,5.65Zm0,0-.14-5.65c0-1.87-.11-3.71-.13-5.54l.27.27c-4.41,0-8.82.16-13.24.17l-13.24.06.5-.5-.05,11.19-.45-.45c2.18,0,4.36,0,6.55.06l6.58.11Z" style="fill:#ebebeb"></path><path d="M242.06,221.57l-13.12.28-6.66.11c-2.23,0-4.47,0-6.7.06h-.44v-.45l0-11.19v-.5h.5l13.24.06c4.41,0,8.83.12,13.24.17h.28v.27c0,1.9-.08,3.79-.13,5.65Zm0,0-.14-5.65c0-1.87-.11-3.71-.13-5.54l.27.27c-4.41,0-8.83.16-13.24.17l-13.24.06.5-.5L216,221.57l-.45-.45c2.18,0,4.36,0,6.55.06l6.58.11Z" style="fill:#ebebeb"></path><path d="M453.66,312.67l-13.13.27-6.66.12c-2.22,0-4.46,0-6.69.05h-.45v-.44l-.05-11.19V301h.5l13.24.06c4.41,0,8.83.11,13.24.16h.27v.27c0,1.89-.08,3.78-.13,5.65Zm0,0-.14-5.66c0-1.86-.12-3.7-.13-5.53l.27.27c-4.41.05-8.83.16-13.24.16l-13.24.06.5-.49-.06,11.19-.44-.45c2.18,0,4.36,0,6.54,0l6.58.12Z" style="fill:#ebebeb"></path><path d="M438.89,54.2l-13.13.28-6.66.11c-2.22,0-4.46,0-6.69.06H412V54.2l0-11.19v-.5h.51l13.24.06c4.41,0,8.82.12,13.24.17h.27V43c0,1.9-.09,3.79-.13,5.65Zm0,0-.14-5.65c-.05-1.87-.12-3.71-.14-5.54l.28.27c-4.42,0-8.83.16-13.24.17l-13.24.06.5-.5-.06,11.19-.44-.45c2.18,0,4.35,0,6.54.06l6.58.11Z" style="fill:#ebebeb"></path><path d="M453.66,68.31l-13.13.28-6.66.11c-2.22,0-4.46,0-6.69.06h-.45v-.45l-.05-11.19v-.5h.5l13.24.06c4.41,0,8.83.12,13.24.17h.27v.27c0,1.9-.08,3.79-.13,5.65Zm0,0-.14-5.65c0-1.87-.12-3.71-.13-5.54l.27.27c-4.41,0-8.83.16-13.24.17l-13.24.06.5-.5-.06,11.19-.44-.45c2.18,0,4.36,0,6.54.06l6.58.11Z" style="fill:#ebebeb"></path><path d="M87.59,54.2l-13.12.28-6.66.11c-2.23,0-4.47,0-6.7.06h-.44V54.2L60.61,43v-.5h.5l13.24.06c4.42,0,8.83.12,13.24.17h.28V43c0,1.9-.09,3.79-.13,5.65Zm0,0-.14-5.65c0-1.87-.11-3.71-.13-5.54l.27.27c-4.41,0-8.82.16-13.24.17l-13.24.06.5-.5,0,11.19-.45-.45c2.18,0,4.36,0,6.55.06l6.58.11Z" style="fill:#ebebeb"></path><polygon points="48.99 364.46 235.69 364.46 239.57 287.86 45.1 287.86 48.99 364.46" style="fill:#ebebeb"></polygon><path d="M226.84,322.93H148.78l-1.46-26.6h81.23ZM149.68,322H226l1.59-24.71H148.32Z" style="fill:#dbdbdb"></path><path d="M225.4,353.52H151.84l-1.19-24H226.9Zm-72.66-.94h71.77l1.38-22.12H151.64Z" style="fill:#dbdbdb"></path><path d="M195.33,312.51H182.21l-.83-6.41h14.77ZM183,311.57H194.5l.58-4.53H182.45Z" style="fill:#dbdbdb"></path><path d="M195.33,344.73H182.21l-.83-6.42h14.77Zm-12.29-1H194.5l.58-4.53H182.45Z" style="fill:#dbdbdb"></path><path d="M135,322.93H57l-1.46-26.6h81.22ZM57.87,322h76.27l1.59-24.71H56.5Z" style="fill:#dbdbdb"></path><path d="M133.59,353.52H60l-1.19-24h76.25Zm-72.66-.94H132.7l1.38-22.12H59.83Z" style="fill:#dbdbdb"></path><path d="M103.52,312.51H90.4l-.83-6.41h14.77Zm-12.29-.94h11.46l.58-4.53H90.64Z" style="fill:#dbdbdb"></path><path d="M103.52,344.73H90.4l-.83-6.42h14.77Zm-12.29-1h11.46l.58-4.53H90.64Z" style="fill:#dbdbdb"></path><polygon points="65.73 364.46 64.56 372.81 62.2 389.58 57.59 389.58 57.59 364.46 65.73 364.46" style="fill:#ebebeb"></polygon><polygon points="65.73 364.46 64.56 372.81 57.59 372.81 57.59 364.46 65.73 364.46" style="fill:#dbdbdb"></polygon><polygon points="218.94 364.46 220.12 372.81 222.47 389.58 227.08 389.58 227.08 364.46 218.94 364.46" style="fill:#ebebeb"></polygon><polygon points="218.94 364.46 220.12 372.81 227.08 372.81 227.08 364.46 218.94 364.46" style="fill:#dbdbdb"></polygon></g><g id="freepik--Floor--inject-106"><polygon points="44.38 389.58 95.79 389.34 147.19 389.25 250 389.08 352.81 389.25 404.21 389.33 455.62 389.58 404.21 389.82 352.81 389.91 250 390.08 147.19 389.91 95.79 389.82 44.38 389.58" style="fill:#263238"></polygon></g><g id="freepik--Shadow--inject-106"><ellipse cx="250" cy="425.82" rx="179.78" ry="22.51" style="fill:#ebebeb"></ellipse></g><g id="freepik--Plant--inject-106"><path d="M414.19,322.13s10-35.93,18-48.13,22.9-25.61,22.9-25.61S454.74,303.79,414.19,322.13Z" style="fill:#3468DD"></path><path d="M414.91,321.51a171.18,171.18,0,0,0,9.12-17.4,121.67,121.67,0,0,1,5-18.9.1.1,0,0,1,.18.07c-1.33,5.67-2.87,11.3-4.28,17,4-8.75,7.88-17.6,12.7-25.87a54.94,54.94,0,0,1,4.64-11.5c.05-.1.22,0,.17.07a75.26,75.26,0,0,0-3.12,8.62,86,86,0,0,1,7.61-10.5c.17-.21.52,0,.35.24-6.44,8.21-10.88,17.55-15.11,27a142.55,142.55,0,0,0,12.56-15.7.06.06,0,0,1,.09.07,129.06,129.06,0,0,1-13.45,17.43c-3.08,6.93-6.11,13.89-9.78,20.49,7.34-6.21,13-14.24,18.57-22a.17.17,0,0,1,.28.19c-5.59,8.5-11.38,16.5-19.42,22.79a89.25,89.25,0,0,1-5.38,8.4A.43.43,0,0,1,414.91,321.51Z" style="fill:#263238"></path><path d="M411.09,325.37s18-33.13,12.76-65.25S413,216.56,413,216.56,384.75,266.52,411.09,325.37Z" style="fill:#3468DD"></path><path d="M403.7,273.28A157.15,157.15,0,0,0,410.65,300c.05-11.79.27-23.57.59-35.36a90.54,90.54,0,0,1-3.4-22c0-.22.32-.21.34,0a123.71,123.71,0,0,0,3.15,18.89q.41-14.58.95-29.16a.13.13,0,0,1,.25,0c0,15.19,0,30.38-.1,45.57a122.15,122.15,0,0,0,5.19-18,.05.05,0,0,1,.1,0c-.54,7.1-2.7,14-5.31,20.54-.07,9.71-.18,19.42-.39,29.13,3-10.33,6.29-20.32,7.17-31.23a.12.12,0,0,1,.23,0c-.24,12-3.34,24.24-7.31,35.56a.58.58,0,0,1-.2.28q-.14,5.33-.31,10.64a.4.4,0,0,1-.79,0q-.21-10.89-.17-21.78a97.34,97.34,0,0,1-7.1-29.82C403.53,273.21,403.69,273.19,403.7,273.28Z" style="fill:#263238"></path><path d="M404.93,268.16a61.48,61.48,0,0,1,1.26,8.75c0,.1-.15.11-.17,0a61.32,61.32,0,0,1-1.48-8.72C404.51,268,404.89,267.94,404.93,268.16Z" style="fill:#263238"></path><path d="M415.45,243.94c0-.1.17-.07.17,0a22,22,0,0,1-.9,6c0,.16-.27.09-.24-.07C414.87,247.94,415.11,245.94,415.45,243.94Z" style="fill:#263238"></path><path d="M404.53,327.9s.73-34.58-9.19-51.77S369,250.18,369,250.18,375.6,311.14,404.53,327.9Z" style="fill:#3468DD"></path><path d="M386.45,298.33a128.37,128.37,0,0,0,13.42,17q-3-10.6-6.87-20.85c-5.56-4.88-11.07-9.93-14.49-16.61a.1.1,0,0,1,.17-.09c3.66,5.91,8.57,10.64,13.73,15.19A266.44,266.44,0,0,0,378.6,262.9a.22.22,0,0,1,.38-.22,163.32,163.32,0,0,1,8.66,15.79c-.93-3.7-1.67-7.48-2.62-11.15a.08.08,0,1,1,.15,0,63,63,0,0,1,4.08,14.66A176.22,176.22,0,0,1,398,305.61c-.25-5.19-.58-10.35-1.11-15.52,0-.09.15-.12.17,0a84.16,84.16,0,0,1,1.5,17.42c1.43,5.15,2.63,10.37,3.6,15.62a.11.11,0,0,1-.22.06c-.54-2.2-1.12-4.39-1.72-6.56,0,0-.08,0-.11-.05-5.32-5.33-10.38-11.41-13.7-18.2C386.37,298.32,386.42,298.29,386.45,298.33Z" style="fill:#263238"></path><path d="M375,270.19c1.11,1.19,2.12,2.45,3.19,3.68A28.16,28.16,0,0,1,381,277.2c0,.05,0,.11-.07.08a16.44,16.44,0,0,1-3.3-3.26,28.19,28.19,0,0,1-2.83-3.71A.1.1,0,0,1,375,270.19Z" style="fill:#263238"></path><path d="M434,323.68l-1.25,16.38L429,389.58H396.12l-3.77-49.52-1.25-16.38H434Z" style="fill:#455a64"></path><path d="M434,323.68l-1.25,16.38h-40.4l-1.25-16.38H434Z" style="fill:#37474f"></path><rect x="388.18" y="315.64" width="48.74" height="12.56" transform="translate(825.09 643.84) rotate(180)" style="fill:#455a64"></rect></g><g id="freepik--Character--inject-106"><path d="M133.81,389.18l197.57.85c48-37.71,53-93.57,18.72-127.44C329.37,242.11,303,246.24,278,243h-.07c-8.74-1.14-17.3-3.17-25.43-7.46-25.82-13.62-40.37-45.75-62.09-72.77-2.71-3.39-5.53-6.68-8.5-9.86-17.86-19.07-53.41-19.69-72,7.12C62.64,228.12,84.28,329.51,133.81,389.18Z" style="fill:#3468DD"></path><path d="M133.81,389.18l197.57.85c48-37.71,53-93.57,18.72-127.44C329.37,242.11,303,246.24,278,243h-.07c-8.74-1.14-17.3-3.17-25.43-7.46-25.82-13.62-40.37-45.75-62.09-72.77-2.71-3.39-5.53-6.68-8.5-9.86-17.86-19.07-53.41-19.69-72,7.12C62.64,228.12,84.28,329.51,133.81,389.18Z" style="fill:#020100;opacity:0.30000000000000004"></path><path d="M129.42,233.32c5.18,81.06,98.79,111.31,157.26,87,50.83-21.11,34.2-69.3-8.71-77.37h-.07c-8.74-1.14-17.3-3.17-25.43-7.46-25.82-13.62-40.37-45.75-62.09-72.77C158,145.93,125.62,174,129.42,233.32Z" style="fill:#020100;opacity:0.30000000000000004"></path><path d="M291.08,425.73c-2.91-1.07-68.5-53.49-69.74-57.07-.48-1.36,6.6-11.36,15.49-23.19,1.92-2.56,3.92-5.19,6-7.85,13.26-17.27,27.72-35.29,27.72-35.29l44,34.94L285.57,371.6l-6.35,7.54s16.14,31.31,17.08,35.38S294,426.79,291.08,425.73Z" style="fill:#f7a9a0"></path><path d="M291.08,425.73c-2.91-1.07-68.5-53.49-69.74-57.07-.57-1.66,10-16.07,21.46-31l42.77,34-6.35,7.54s16.14,31.31,17.08,35.38S294,426.79,291.08,425.73Z" style="fill:#fff"></path><path d="M291.08,425.73c-2.91-1.07-68.5-53.49-69.74-57.07-.48-1.36,6.6-11.36,15.49-23.19l42.39,33.67s16.14,31.31,17.08,35.38S294,426.79,291.08,425.73Z" style="fill:#3468DD"></path><path d="M292.23,422.35c-10.78-9.06-55.11-44.57-66.46-52.71-.09-.06-.14,0-.05.07,10.49,9.21,55.11,44.37,66.37,52.82C292.33,422.71,292.46,422.54,292.23,422.35Z" style="fill:#263238"></path><path d="M294,408.79a11.33,11.33,0,0,0-8.72-2.58,11,11,0,0,0-7.15,3.91c0,.07.07.17.13.11a13.07,13.07,0,0,1,15.63-1.31A.09.09,0,1,0,294,408.79Z" style="fill:#263238"></path><path d="M282.61,383.64c-4.35-3.57-10.69-6.1-16.3-4.69-.22.06-.14.37,0,.4a77.88,77.88,0,0,1,15.91,4.9A.36.36,0,0,0,282.61,383.64Z" style="fill:#263238"></path><path d="M285,387.68c-4.35-3.58-10.69-6.1-16.3-4.69-.22.06-.14.37,0,.4a78.07,78.07,0,0,1,15.91,4.9A.36.36,0,0,0,285,387.68Z" style="fill:#263238"></path><path d="M287.29,391.72c-4.35-3.58-10.69-6.1-16.31-4.69-.21.06-.13.37,0,.4a78.07,78.07,0,0,1,15.91,4.9A.36.36,0,0,0,287.29,391.72Z" style="fill:#263238"></path><path d="M289.63,395.76c-4.35-3.58-10.7-6.1-16.31-4.69-.21.06-.13.37.05.4a77.79,77.79,0,0,1,15.9,4.9A.36.36,0,0,0,289.63,395.76Z" style="fill:#263238"></path><path d="M236.92,361.44c-4.95-3.93-11.07,3.75-6.11,7.69S241.88,365.38,236.92,361.44Z" style="fill:#fff"></path><path d="M296.76,375.7c-.76-3.63-5-4.06-7.91-3.24a29.46,29.46,0,0,0-13,8.05.15.15,0,0,0,0,.24.69.69,0,0,0,.51,1c4.87.33,10,1.3,14.85.13C294.07,381.19,297.47,379.13,296.76,375.7Zm-12.88,5c-2.4-.11-4.77-.33-7.17-.35a85.72,85.72,0,0,1,7.69-4.54,31.62,31.62,0,0,1,4-1.68c2.12-.69,9.38-.92,6,4.22C292.5,381.22,286.74,380.87,283.88,380.74Z" style="fill:#263238"></path><path d="M263.62,373.41c3.36,3.65,8.18,5.72,12.41,8.14a.7.7,0,0,0,1-.54c.09,0,.18-.05.16-.17a29.61,29.61,0,0,0-6.32-13.92c-2-2.3-5.74-4.3-8.38-1.7C260,367.67,261.65,371.28,263.62,373.41Zm-.66-4.63c0-6.16,6-1.93,7.33-.18a32.06,32.06,0,0,1,2.37,3.61c1.51,2.59,2.63,5.34,3.87,8.05-2-1.32-4.11-2.45-6.16-3.7C267.92,375.08,262.94,372.17,263,368.78Z" style="fill:#263238"></path><path d="M358.93,270.09c-3,22.85-59.33,88.81-65.84,96.37l-1.48,1.73L245,332.39l.54-.69,41-53.71-122.35-.72,46.45-36.12s3.77,2.17,11.6,1c27-4,87.88-12.7,102.24-12.13C343.05,230.82,361.69,249.12,358.93,270.09Z" style="fill:#37474f"></path><path d="M301.32,258a55.63,55.63,0,0,0-4.23,5.43c-1.45,1.9-2.93,3.78-4.37,5.68l-.05.06c.26-.56.51-1.12.78-1.67.91-1.89,1.64-3.85,2.72-5.66.07-.11-.1-.21-.17-.1-1.11,1.8-2.4,3.5-3.35,5.4-.44.89-.87,1.79-1.26,2.7-.22.5-.44,1-.63,1.51-.09.24-.2.48-.27.74-.65.88-1.29,1.77-1.91,2.67-1.38,2-2.6,4.11-4,6.1-.08.1.09.2.17.1,1.42-1.87,3-3.6,4.44-5.46s2.85-3.82,4.22-5.77,2.65-3.83,4-5.74a57.28,57.28,0,0,0,4-5.89C301.47,258.05,301.38,258,301.32,258Z" style="fill:#263238"></path><path d="M461.13,351.64c-1.08,2.9-53.71,68.32-57.3,69.55-1.35.47-11.33-6.64-23.14-15.57-2.55-1.93-5.17-3.94-7.82-6-17.23-13.31-35.2-27.84-35.2-27.84l35.08-43.87L407,357l7.52,6.37s31.36-16,35.43-17S462.2,348.74,461.13,351.64Z" style="fill:#f7a9a0"></path><path d="M461.13,351.64c-1.08,2.9-53.71,68.32-57.3,69.55-1.65.57-16-10-31-21.56L407,357l7.52,6.37s31.36-16,35.43-17S462.2,348.74,461.13,351.64Z" style="fill:#fff"></path><path d="M461.13,351.64c-1.08,2.9-53.71,68.32-57.3,69.55-1.35.47-11.33-6.64-23.14-15.57l33.81-42.28s31.36-16,35.43-17S462.2,348.74,461.13,351.64Z" style="fill:#3468DD"></path><path d="M457.75,350.47c-9.09,10.75-44.75,55-52.92,66.29-.06.09,0,.14.07.05,9.25-10.45,44.54-55,53-66.2C458.11,350.38,458,350.24,457.75,350.47Z" style="fill:#263238"></path><path d="M444.2,348.7a11.28,11.28,0,0,0-2.6,8.71,10.92,10.92,0,0,0,3.88,7.16c.07.05.16-.07.11-.13a13.07,13.07,0,0,1-1.26-15.63A.09.09,0,1,0,444.2,348.7Z" style="fill:#263238"></path><path d="M419,360c-3.6,4.34-6.14,10.68-4.75,16.3.06.21.37.13.4-.05a78,78,0,0,1,4.95-15.89A.35.35,0,0,0,419,360Z" style="fill:#263238"></path><path d="M423.06,357.64c-3.59,4.34-6.13,10.67-4.74,16.29.06.22.36.14.4-.05A78.35,78.35,0,0,1,423.66,358,.35.35,0,0,0,423.06,357.64Z" style="fill:#263238"></path><path d="M427.11,355.31c-3.59,4.34-6.14,10.68-4.74,16.29.05.22.36.14.4,0a78.44,78.44,0,0,1,4.94-15.89A.35.35,0,0,0,427.11,355.31Z" style="fill:#263238"></path><path d="M431.16,353c-3.59,4.34-6.14,10.67-4.74,16.29.05.22.36.14.4,0a77.11,77.11,0,0,1,4.94-15.88A.35.35,0,0,0,431.16,353Z" style="fill:#263238"></path><path d="M396.66,405.59c-4,4.93,3.72,11.08,7.67,6.13S400.62,400.64,396.66,405.59Z" style="fill:#fff"></path><path d="M411.12,345.8c-3.63.74-4.08,5-3.27,7.89a29.59,29.59,0,0,0,8,13,.16.16,0,0,0,.24,0,.69.69,0,0,0,1-.51c.35-4.86,1.33-10,.18-14.85C416.6,348.5,414.55,345.1,411.12,345.8Zm5,12.89c-.12,2.39-.35,4.77-.38,7.17-1.55-2.54-3.21-5-4.51-7.7a32.34,32.34,0,0,1-1.67-4c-.69-2.12-.89-9.38,4.24-6C416.63,350.07,416.25,355.83,416.12,358.69Z" style="fill:#263238"></path><path d="M408.72,378.93c3.66-3.35,5.74-8.17,8.18-12.39a.69.69,0,0,0-.53-1,.15.15,0,0,0-.18-.16,29.61,29.61,0,0,0-13.94,6.28c-2.3,1.95-4.31,5.72-1.73,8.37S406.58,380.88,408.72,378.93Zm-4.63.64c-6.16-.06-1.91-6-.16-7.33a32.1,32.1,0,0,1,3.62-2.36c2.59-1.5,5.35-2.61,8.06-3.84-1.32,2-2.46,4.1-3.71,6.14C410.41,374.63,407.48,379.6,404.09,379.57Z" style="fill:#263238"></path><path d="M405.15,350.35l-36.51,49.26L245.45,314.12l-11.88-8.24s-3.37,2.26-8.43,5.06c-7,3.89-17.34,8.81-26.46,10.15-15.29,2.27-38.36,2-51.25-15.21-10.85-14.52-7.43-33.45-7.43-33.45l16.79-7.22s39.74-33.11,65.49-34.1c10.93-.44,26.85,7.85,41.59,16.51S405.15,350.35,405.15,350.35Z" style="fill:#37474f"></path><path d="M233.57,305.88s-3.37,2.26-8.43,5.06c-8.95-10.72-27.9-30.18-28.48-30.87Z" style="fill:#263238"></path><path d="M171.36,254.13c-2.38,1.65-4.68,3.4-7,5.1s-4.69,3.23-6.88,5-4.34,3.83-6.44,5.82c-1,1-2,1.93-3,2.93a27.08,27.08,0,0,0-2.86,3.1c-.07.11.08.23.18.17a34.23,34.23,0,0,0,3.18-2.59c1.12-.94,2.21-1.89,3.32-2.83,2.14-1.81,4.32-3.58,6.45-5.4s4.08-3.79,6.17-5.62c2.25-2,4.61-3.79,6.94-5.64C171.45,254.17,171.4,254.1,171.36,254.13Z" style="fill:#263238"></path><path d="M396.58,348.58c-2.37,2.56-4.56,5.31-6.77,8s-4.42,5.43-6.61,8.17c-4.38,5.47-8.8,10.91-13.1,16.44-2.37,3-4.7,6.1-6.9,9.26-.09.14.13.3.24.18,4.71-5.18,9-10.71,13.39-16.17s8.74-11,13-16.51c2.35-3,4.77-6,6.93-9.22C396.88,348.61,396.68,348.47,396.58,348.58Z" style="fill:#263238"></path><path d="M303.05,354c-6.13-4.83-20.06-14.26-26.42-18.79s-12.64-9-19.06-13.41c-1.84-1.25-3.7-2.48-5.55-3.71s-3.79-2.37-5.6-3.65c-.11-.08-.2.1-.1.17,1.67,1.2,3.24,2.54,4.88,3.78s3.12,2.38,4.7,3.55c3.07,2.28,6.18,4.51,9.29,6.76q9.44,6.82,19,13.43c3.63,2.5,14.83,9.87,18.55,12.24C303,354.48,303.26,354.12,303.05,354Z" style="fill:#263238"></path><path d="M341.71,303.06c-5.66-4.69-18.57-13.71-24.51-18.05s-12-8.82-18-13.18l-17.94-13c-5.8-4.19-11.57-8.45-17.69-12.16a117,117,0,0,0-10.32-5.61,67.13,67.13,0,0,0-10.67-4.36.1.1,0,0,0-.07.18c3,1.69,6.19,3.11,9.24,4.74s6,3.3,8.92,5.07c6.08,3.68,11.82,7.87,17.58,12,12,8.61,23.93,17.26,36,25.75,6.75,4.75,20.2,14.57,27.21,18.94C341.66,303.57,341.92,303.23,341.71,303.06Z" style="fill:#263238"></path><path d="M182.6,124.45c15.73,11.38,29.9,44.54,25.71,67.22-5,27-26.34,43.3-46.1,39.68-17.94-3.28-27.82-19.66-23.22-33.42,4.44-13.3,15.48-19.42,16.16-30.82.33-5.45-2.62-14-3.25-22.12C150.76,130.3,170.36,115.59,182.6,124.45Z" style="fill:#263238"></path><path d="M137.08,201.22a27.73,27.73,0,0,1,2.37-8.11,34.78,34.78,0,0,1,4.25-7c1.7-2.14,3.34-4.33,4.91-6.6a35.93,35.93,0,0,0,4-7.4,25,25,0,0,0,1.24-4.18,18.66,18.66,0,0,0,.19-4.48,83.9,83.9,0,0,0-1.37-8.75,38.22,38.22,0,0,1-.72-8.64c.11-2.88,1.26-5.67,2.3-8.29A24,24,0,0,0,151.5,146a37.31,37.31,0,0,0,.44,8.82c.4,2.91,1,5.79,1.2,8.65a17.22,17.22,0,0,1-.22,4.2,23.15,23.15,0,0,1-1.23,4c-2,5.19-5.44,9.47-8.62,13.91a34.85,34.85,0,0,0-4.08,7.32A26.72,26.72,0,0,0,137.08,201.22Z" style="fill:#263238"></path><path d="M189,196.68c6.62,12.7,32,53.33,46.16,55,9.31,1.08,45.8-6.1,51.29-15.44,2.39-4.07-4.89-30.09-9.69-28.56s-34,8.34-37.7,7.64-34-29.32-44.91-36.1C175.33,167.52,185.44,189.84,189,196.68Z" style="fill:#f7a9a0"></path><path d="M197.43,213l13.21-22s-13.35-10.8-22-15.18c-4.85-2.45-7.86.16-6.5,4.87C186.89,197.22,197.43,213,197.43,213Z" style="fill:#c7c7c7"></path><path d="M207.23,196.7,197.43,213s-10.55-15.81-15.29-32.32a5.78,5.78,0,0,1,0-3.9Z" style="fill:#a6a6a6"></path><polygon points="205.74 199.19 203.86 202.32 203.8 202.29 201.89 203.1 202.07 201.03 200.7 199.46 202.73 198.99 203.8 197.21 204.87 198.99 205.74 199.19" style="fill:#fff"></polygon><polygon points="193.3 181.89 194.37 183.67 196.4 184.14 195.03 185.71 195.21 187.78 193.3 186.97 191.38 187.78 191.56 185.71 190.2 184.14 192.23 183.67 193.3 181.89" style="fill:#fff"></polygon><path d="M206.15,189.92a164.38,164.38,0,0,0-10.78,18s.11.12.14.08c3.21-4.75,8.94-14.66,10.83-18C206.38,190,206.19,189.86,206.15,189.92Z" style="fill:#263238"></path><path d="M140,272.43l74.4-19-7.34-26.86s5.89-8.43,3.38-16.46c-2.23-7.16-19.19-28.46-22.62-31.3-5.88-4.87-16.39-6.5-22.14.29C142,207.06,140,272.43,140,272.43Z" style="fill:#c7c7c7"></path><path d="M161.79,197.21l1.07,1.78,2,.47L163.52,201l.18,2.07-1.91-.81-1.92.81.19-2.07-1.37-1.57,2-.47ZM181.72,199l-2,.47,1.36,1.57-.18,2.07,1.92-.81,1.91.81-.18-2.07,1.36-1.57-2-.47-1.07-1.78Zm23.84,2.24c-.7-1.06-1.45-2.15-2.22-3.25l-.61,1-2,.47,1.37,1.57-.18,2.07,1.91-.81,1.92.81Zm-34.34-17.56-2,.47,1.37,1.57-.18,2.07,1.91-.81,1.92.81-.18-2.07,1.36-1.57-2-.47-1.07-1.78Zm23.93,3.46c-1-1.27-2-2.46-2.89-3.52l0,.06-2,.47,1.36,1.57-.18,2.07,1.92-.81,1.91.81Zm-34.43,43.06-2,.47,1.37,1.57-.19,2.07,1.92-.81,1.91.81-.18-2.07,1.37-1.57-2-.47-1.07-1.78Zm21,0-2,.47,1.36,1.57-.18,2.07,1.92-.81,1.91.81-.18-2.07,1.36-1.57-2-.47-1.07-1.78Zm21,0-2,.47,1.37,1.57-.18,2.07,1.91-.81,1.92.81-.18-2.07,1.36-1.57-2-.47-1.07-1.78Zm-52.51-15.32-2,.47,1.36,1.57-.18,2.07,1.92-.81,1.91.81-.18-2.07,1.37-1.57-2-.47-1.07-1.78Zm21,0-2,.47,1.37,1.57-.18,2.07,1.91-.81,1.92.81-.18-2.07,1.36-1.57-2-.47-1.07-1.78Zm21,0-2,.47,1.36,1.57-.18,2.07,1.92-.81,1.91.81-.18-2.07,1.37-1.57-2-.47-1.07-1.78Zm-48.35,47-2-.46-1-1.67c-.16,1.88-.3,3.59-.41,5.11l.34-.15,1.92.82-.18-2.08Zm16.84-.46-2,.46,1.37,1.57-.19,2.08,1.92-.82,1.91.82-.18-2.08,1.37-1.57-2-.46-1.07-1.79Zm22.08-1.79-1.08,1.79-2,.46.31.36,3.77-1Zm-32.58-13.54-2,.47,1.36,1.57-.18,2.08,1.92-.82,1.91.82L153,248.1l1.37-1.57-2-.47-1.07-1.78Zm21,0-2,.47,1.37,1.57-.18,2.08,1.91-.82,1.92.82L174,248.1l1.36-1.57-2-.47-1.07-1.78Zm21,0-2,.47,1.36,1.57-.18,2.08,1.92-.82,1.91.82L195,248.1l1.37-1.57-2-.47-1.07-1.78Zm21.17,3.69-1-3.51-1.23.29,1.36,1.57-.18,2.08Z" style="fill:#fff"></path><path d="M196.09,223a72.9,72.9,0,0,0-9.87,4.46c-1.56.88-3.07,1.83-4.58,2.81-.74.49-1.5,1-2.27,1.42a11.92,11.92,0,0,1-2.52,1.21.06.06,0,1,0,0,.12,18.58,18.58,0,0,0,2.55-.73,19.74,19.74,0,0,0,2.32-1.11c1.59-.88,3.15-1.83,4.73-2.73,3.2-1.8,6.4-3.61,9.73-5.18C196.36,223.23,196.24,223,196.09,223Z" style="fill:#263238"></path><path d="M205.5,223.8a80.77,80.77,0,0,0-8.73,1.9c-1.44.4-2.84.89-4.24,1.41l-2,.78c-.73.3-1.41.69-2.14,1-.08,0,0,.15,0,.12.7-.25,1.44-.38,2.15-.59l2.13-.63c1.43-.42,2.86-.83,4.28-1.26,2.85-.87,5.69-1.7,8.56-2.47C205.72,224,205.65,223.78,205.5,223.8Z" style="fill:#263238"></path><path d="M257.2,242.73c-3.55-3,5.48-31,9.95-32.64.85-.31,2.09-.73,4.79-1.93h0s9.79-4.22,16.68-10.62c5.8-5.36,13.8-14,16.8-11,4.39,4.38-4.41,16.51-9.89,23.16,4.62.82,8.51,2,10.54,3.45,6.72,5-11.62,37.81-20.11,38.15C277.76,251.64,260.76,245.74,257.2,242.73Z" style="fill:#f7a9a0"></path><path d="M226,243.07c-.34-2.49-2.61-14.54-12.2-15.37-12-1-15.77,7.43-21.8,10.45-11.79,5.93-35.88-5.81-53.89,7.42s-12.68,36.84-5.73,50.68,22.35,33,41,28.21c18.12-4.61,21.76-20.63,30.61-26.51,8.06-5.36,33.72-9.08,35.5-20.22,1.18-7.43-6.83-5.74-9.35-9.21-2.39-3.29.43-7,.68-8.89C231.46,255.38,226,243.07,226,243.07Z" style="fill:#3468DD"></path><path d="M187.38,278.28l11.12-6.16s5.47,3.41,11.29.79,6.59-9.13,6.59-9.13l2.57-1.13a12.1,12.1,0,0,1,2.12,6.45c.35,7.49-12.67,26.37-25.71,23.31C185.15,290,187.38,278.28,187.38,278.28Z" style="opacity:0.1"></path><path d="M216.75,259.76a12,12,0,1,1-14.5-8.89A12,12,0,0,1,216.75,259.76Z" style="fill:#3468DD"></path><path d="M216.75,259.76a12,12,0,1,1-14.5-8.89A12,12,0,0,1,216.75,259.76Z" style="opacity:0.30000000000000004"></path><circle cx="205.05" cy="262.56" r="9.12" transform="matrix(0.52, -0.86, 0.86, 0.52, -125.76, 301.92)" style="fill:#263238"></circle><polygon points="326.39 196.48 330.62 204.91 216.4 266.4 208.75 251.16 326.39 196.48" style="fill:#c7c7c7"></polygon><rect x="164.03" y="275.1" width="19.77" height="5.22" transform="translate(344.03 -2.35) rotate(63.33)" style="fill:#fff"></rect><rect x="329.81" y="186.19" width="1.44" height="3.85" transform="translate(710.8 193.95) rotate(151.23)" style="fill:#263238"></rect><rect x="328.17" y="184.03" width="2.87" height="4.8" transform="translate(334.41 -192.22) rotate(61.23)" style="fill:#263238"></rect><rect x="335.93" y="182.87" width="1.44" height="3.85" transform="translate(720.67 184.78) rotate(151.23)" style="fill:#263238"></rect><rect x="334.28" y="180.71" width="2.87" height="4.8" transform="translate(334.65 -199.3) rotate(61.23)" style="fill:#263238"></rect><rect x="342.04" y="179.54" width="1.44" height="3.85" transform="translate(730.54 175.6) rotate(151.23)" style="fill:#263238"></rect><rect x="340.39" y="177.38" width="2.87" height="4.8" transform="translate(334.9 -206.38) rotate(61.23)" style="fill:#263238"></rect><rect x="338.01" y="204.99" width="1.44" height="3.85" transform="translate(725.35 296.72) rotate(161.66)" style="fill:#263238"></rect><rect x="337.89" y="206.34" width="2.87" height="4.8" transform="translate(248 596.52) rotate(-108.34)" style="fill:#263238"></rect><rect x="344.6" y="202.77" width="1.44" height="3.85" transform="translate(737.51 290.36) rotate(161.66)" style="fill:#263238"></rect><rect x="344.49" y="204.13" width="2.87" height="4.8" transform="translate(258.74 599.87) rotate(-108.34)" style="fill:#263238"></rect><rect x="351.2" y="200.56" width="1.44" height="3.85" transform="translate(749.67 283.97) rotate(161.66)" style="fill:#263238"></rect><rect x="351.09" y="201.91" width="2.87" height="4.8" transform="translate(269.55 603.22) rotate(-108.34)" style="fill:#263238"></rect><path d="M359,192.56l-4.14-9.5s-3.2.9-7.63-2.55l-19.37,10.1-2.53,4.25,4.93,11.3,4.84,1.05,20.58-7.34C356.13,194.3,359,192.56,359,192.56Zm-27.53,3.77-1-2.28,18.29-8,1,2.28Zm2.89,6.62-1-2.3,18.29-8,1,2.29Z" style="fill:#3468DD"></path><path d="M168.2,272.14l19.91-9.6,19.95-9.5L248,234l40-18.8c13.34-6.26,26.66-12.55,40-18.71l0,0,3.15-7.67-3,7.71v0h0c-13.25,6.43-26.57,12.73-39.87,19.07l-39.92,19-40,18.78-20,9.38Z" style="fill:#263238"></path><path d="M169.6,274.92l19.93-9.78,20-9.68,40-19.35c13.32-6.45,26.7-12.78,40-19.17s26.68-12.81,40.08-19.09l0,0,7.36-12L329.73,198v0l0,0c-13.28,6.54-26.63,12.92-39.94,19.4s-26.63,12.93-40,19.31l-40.06,19.14-20,9.56Z" style="fill:#263238"></path><path d="M344.31,182.81l-13.63,16.24,0,0,0,0-39.86,19.75c-13.3,6.56-26.55,13.21-39.89,19.69l-40,19.53-20,9.76-20,9.67,19.89-10,19.92-9.88,39.87-19.74c13.28-6.6,26.63-13,39.95-19.58l40-19.51,0,0Z" style="fill:#263238"></path><path d="M172.2,280.25,192,270.06l19.87-10.12,39.77-20.19c13.24-6.76,26.56-13.35,39.84-20l39.88-20,0,0h0l20,.88-20-.58h.08l-39.76,20.21c-13.26,6.71-26.48,13.51-39.79,20.15l-39.86,20-19.95,10Z" style="fill:#263238"></path><path d="M345,203.41l-13.85-2h.06C318.16,208.28,305,215,291.9,221.9l-39.36,20.47-39.45,20.3-19.73,10.14-19.77,10.05,19.62-10.35,19.66-10.27,39.34-20.5,39.44-20.33c13.16-6.75,26.27-13.58,39.47-20.25l0,0h0Z" style="fill:#263238"></path><path d="M174.93,285.54l19.47-10.42,19.51-10.33,39-20.63,39.14-20.45c13.05-6.8,26.08-13.64,39.18-20.35h.05l7.43,2.91-7.47-2.79h.05c-13,7-26,13.83-39,20.71l-39,20.62-39.15,20.42-19.57,10.21Z" style="fill:#263238"></path><path d="M294.18,207.59c-3.63,2.39,1.26,5.3,1.26,5.3s-8.05-2.49-10.84,1.42,3.36,7.08,3.79,7.33c-.42-.13-7.88-2.22-10.28,2-2.48,4.38,4.14,6.66,4.57,6.8-.44,0-6.27.19-7.36,3.8-1.87,6.22,13.05,6.18,16.62,10,0,0-5.85,6.8-6,7,0,0,14.2.25,19.14-4.85a4.53,4.53,0,0,0,.61-5.65s4.57.58,6.56-2.68c1-1.68-.76-4.8-.76-4.8s3.68.32,5.27-2.69c1.28-2.4-.71-5.16-.71-5.16s3.68-1.33,4.18-4.21C321.29,215.48,302,202.48,294.18,207.59Z" style="fill:#f7a9a0"></path><path d="M315.83,225a.06.06,0,1,0,.08-.09c-5.31-5.82-12.94-10.6-20.71-12.21-.26,0-.46.34-.19.45A82.74,82.74,0,0,1,315.83,225Z" style="fill:#263238"></path><path d="M311.63,233.36c.07.06.17-.06.1-.13-5.51-6-14.25-11.12-23.43-11.92-.31,0-.62.27-.26.33C294.1,222.63,305.76,228.64,311.63,233.36Z" style="fill:#263238"></path><path d="M282,230.61c8.77,1.1,16.3,4.91,23.48,9.93.09.07.17-.07.11-.15-2.84-3.41-7.74-6.13-11.74-7.93a23.39,23.39,0,0,0-11.81-2.16C281.9,230.31,281.84,230.58,282,230.61Z" style="fill:#263238"></path><path d="M295.38,212.75c-.3-.06-.06.46-.37.4-1.29-.22-9.2-.9-10.27,1.72-.85,2.11,1.38,4.71,2.63,5.37l3.15,1.67-3.54-.47a14.38,14.38,0,0,0-4.72.1,5.2,5.2,0,0,0-3.63,2.22,3,3,0,0,0,.34,3.73,8.91,8.91,0,0,0,3.9,2.27l4,1.28-4.2.11a13.48,13.48,0,0,0-3.45.53,5.64,5.64,0,0,0-2.81,1.66,2.7,2.7,0,0,0-.41,2.79,6,6,0,0,0,2.48,2.22,47.05,47.05,0,0,0,6.78,2.73c1.17.41,2.34.82,3.49,1.29a8.91,8.91,0,0,1,3.17,1.91,9.66,9.66,0,0,0-3.29-1.59c-1.17-.37-2.36-.69-3.55-1a40.31,40.31,0,0,1-7.08-2.43,6.91,6.91,0,0,1-3-2.56,3.8,3.8,0,0,1,.44-4.15,6.89,6.89,0,0,1,3.43-2.15,14.64,14.64,0,0,1,3.84-.65l-.18,1.38a10.26,10.26,0,0,1-4.64-2.63,4.28,4.28,0,0,1-1.19-2.67,4.87,4.87,0,0,1,.73-2.79,6.57,6.57,0,0,1,4.6-2.82,15.92,15.92,0,0,1,5.2,0l-.39,1.19c-1.56-.9-4.38-3.53-3.47-7C285.19,210.12,293.83,212.25,295.38,212.75Z" style="fill:#263238"></path><path d="M295.44,212.89a8.8,8.8,0,0,1-1.69-2.06,2,2,0,0,1-.06-2,4.2,4.2,0,0,1,1.87-1.4c.81-.34,1.67-.66,2.58-.95a7,7,0,0,0-2.87.05,4.08,4.08,0,0,0-2.62,1.68,2.79,2.79,0,0,0-.35,1.69,3,3,0,0,0,.67,1.5A4.7,4.7,0,0,0,295.44,212.89Z" style="fill:#263238"></path><path d="M145.91,265.4s-3.34-6.93,1.57-8.83,7.09,5.49,7.09,5.49Z" style="fill:#dbdbdb"></path><path d="M173.94,312.26h0l-.85,7.48-.27,2.47-1.88-1.63-5.66-5h0L145.8,265.11l8.66-3.34,19.48,50.49Z" style="fill:#dbdbdb"></path><polygon points="173.09 319.75 172.82 322.22 170.94 320.58 173.09 319.75" style="fill:#455a64"></polygon><rect x="144.99" y="263.1" width="10.84" height="2.15" transform="translate(-85.01 71.85) rotate(-21.1)" style="fill:#263238"></rect><rect x="145.85" y="265.32" width="10.84" height="2.15" transform="translate(-85.76 72.31) rotate(-21.1)" style="fill:#263238"></rect><polygon points="146.6 269.35 149.86 268.09 155.11 287.05 153.88 287.44 146.6 269.35" style="fill:#263238"></polygon><path d="M155.59,180.91c-29.51,15.08-58.4,34.41-62.67,48-2.24,7.14,10.31,50.75,19.55,61.68,3,3.52,32.29-23.94,29.84-28.21-5.41-9.4-13.06-29.88-14.31-32.22-.6-1.13,25.08-23.53,37.33-38.55C172.93,182.28,173.8,171.6,155.59,180.91Z" style="fill:#f7a9a0"></path><path d="M169,311.54c-4,1.84-7.7-8.43-7.7-8.43a8.14,8.14,0,0,1-2.67,4.85c-2.62,2.08-7-1.11-7-1.11a10.07,10.07,0,0,1-3.64,4.65c-2.71,1.75-7.63-.84-7.63-.84a8.8,8.8,0,0,1-5.78,2.08c-5.64-.28-19.77-15.19-26.08-29.52L141.58,261s22.19,15.51,24.59,21.56C168.19,287.68,175.12,308.73,169,311.54Z" style="fill:#f7a9a0"></path><path d="M161.37,303c-.85-5.94-3.12-11.66-5.37-17.16a.1.1,0,1,0-.19.08c2.3,5.44,3.2,11.63,5.28,17.15A.15.15,0,0,0,161.37,303Z" style="fill:#263238"></path><path d="M151.92,306.52a16,16,0,0,0-1.48-3.82c-.61-1.31-1.25-2.61-1.91-3.9-1.32-2.59-2.69-5.14-4.14-7.66-.07-.11-.25,0-.19.08,1.3,2.58,2.57,5.18,3.77,7.81.6,1.32,1.19,2.64,1.77,4a19,19,0,0,0,1.81,3.67A.21.21,0,0,0,151.92,306.52Z" style="fill:#263238"></path><path d="M140.26,310.55a11,11,0,0,0-1.51-3.36q-.94-1.76-1.86-3.51c-1.22-2.34-2.44-4.69-3.58-7.07-.06-.12-.25,0-.19.08,1.14,2.43,2.26,4.87,3.42,7.29l1.74,3.56a10.39,10.39,0,0,0,1.86,3.08A.08.08,0,0,0,140.26,310.55Z" style="fill:#263238"></path><path d="M134.94,189.15l20.87,14.95s11.84-12.43,16.91-20.69c2.84-4.63.48-7.84-4.33-6.87C151.55,179.92,134.94,189.15,134.94,189.15Z" style="fill:#c7c7c7"></path><path d="M158.69,199.46l1.73-.4-1,1.18Zm3.1-2.25-.56.93.66-.76Zm-11.57-13.54-2,.47,1.36,1.57-.18,2.07,1.92-.81,1.91.81-.18-2.07,1.37-1.57-2-.47-1.07-1.78Zm22.07-1.78-1.07,1.78-2,.47,1.37,1.57-.09,1.06c.83-1.17,1.6-2.3,2.25-3.36L173,183Z" style="fill:#fff"></path><path d="M157.27,199.71a163.6,163.6,0,0,0-17.1-12.2s-.13.1-.1.13c4.47,3.59,13.89,10.1,17.06,12.26C157.19,199.94,157.32,199.76,157.27,199.71Z" style="fill:#263238"></path><path d="M154.63,203.24a6.58,6.58,0,0,0,1.1.74,18,18,0,0,0,2-2.08c1-1.22,2.07-2.41,3.09-3.62,2.05-2.41,4.23-4.68,6.37-7,.06-.06.17,0,.12.09-.93,1.25-1.86,2.49-2.81,3.71l.07-.07,1.63-1.41c.05,0,.11,0,.07.07l-1.57,1.47-.88.79c-1,1.26-2,2.51-3.12,3.72s-4.35,5-4.87,4.94c-.16,0-.9-.87-1.3-1.17C154.44,203.33,154.53,203.17,154.63,203.24Z" style="fill:#263238"></path><path d="M171.25,182.74c.73,1.21,9.69,7.69,15.57,5.49,1.92-.71-1.54-11.34-1.54-11.34l-.07-.85-1.07-11.8-15.6-4.15-2.22-.5s.51,3.21,1.18,7.2c0,.19.06.37.09.57s.06.44.1.65c.09.6.19,1.21.3,1.81s.16.91.26,1.39.19,1,.28,1.44A77.19,77.19,0,0,0,171.25,182.74Z" style="fill:#f7a9a0"></path><path d="M184.75,171c-5.94,5.57-15.05,4.28-15.65,4.19-.2-.84-.39-1.7-.57-2.55-.09-.5-.19-1-.28-1.44s-.18-.93-.26-1.4-.21-1.22-.3-1.81c0-.21-.07-.43-.09-.65s-.08-.38-.1-.57c-.67-4-1.18-7.2-1.18-7.2l2.23.5,15.58,4.16Z" style="fill:#263238"></path><path d="M149.88,156c5,20.17,17.69,19.43,22,18.34,4-1,17.26-4.86,14.34-25.45s-13.9-24.62-23-22.83S144.84,135.8,149.88,156Z" style="fill:#f7a9a0"></path><path d="M156.19,154.17c.45-.2.83-.45,1.26-.69a2.29,2.29,0,0,0,1.15-.95.74.74,0,0,0-.26-.86,1.83,1.83,0,0,0-1.86.11,2.66,2.66,0,0,0-1.34,1.4C154.85,153.81,155.59,154.42,156.19,154.17Z" style="fill:#263238"></path><path d="M169.58,150.19a11.33,11.33,0,0,1-1.43.12,2.28,2.28,0,0,1-1.48-.16.74.74,0,0,1-.26-.86,1.82,1.82,0,0,1,1.61-.93,2.67,2.67,0,0,1,1.89.43A.78.78,0,0,1,169.58,150.19Z" style="fill:#263238"></path><path d="M167.7,155.44c0-.06.13,0,.14.09.33,1.38.94,2.9,2.3,3,0,0,.06.08,0,.08C168.59,158.82,167.79,156.8,167.7,155.44Z" style="fill:#263238"></path><path d="M168.53,153.68c2.15-.77,3.53,3.58,1.54,4.3S166.73,154.32,168.53,153.68Z" style="fill:#263238"></path><path d="M169.46,153.64c.46.12,1,.44,1.44.34s.8-.7,1-1.25c0-.06.07,0,.09,0a1.67,1.67,0,0,1-.63,2.2c-.78.37-1.6-.19-2.07-1C169.21,153.86,169.27,153.59,169.46,153.64Z" style="fill:#263238"></path><path d="M159.83,157.51s-.08.09-.06.15c.48,1.33.8,2.94-.27,3.78,0,0,0,.09,0,.07C161,160.82,160.5,158.69,159.83,157.51Z" style="fill:#263238"></path><path d="M158.17,156.49c-2.22.54-1,4.94,1.08,4.44S160,156,158.17,156.49Z" style="fill:#263238"></path><path d="M157.33,157c-.28.33-.5.85-.91,1s-1-.21-1.4-.58c0,0-.07,0-.05.07.21.85.74,1.64,1.59,1.57s1.12-.93,1.08-1.82C157.63,157.11,157.45,156.91,157.33,157Z" style="fill:#263238"></path><path d="M170.8,167c-.21.43-.37,1-.84,1.19a3.66,3.66,0,0,1-1.55.19.05.05,0,0,0,0,.09,1.88,1.88,0,0,0,2,.1,1.5,1.5,0,0,0,.62-1.56C170.94,167,170.83,167,170.8,167Z" style="fill:#263238"></path><path d="M163.64,163.87s.34,2.11.63,3.06c0,.09.27.06.6,0,0,0,0,0,0,0a4.76,4.76,0,0,0,3.89-3,.1.1,0,0,0-.18-.09,7.21,7.21,0,0,1-3.79,2.45c-.14-.25-.45-3.63-.61-3.6a8.5,8.5,0,0,0-2,1.15c-.83-4.37-1-8.84-1.84-13.18a.14.14,0,0,0-.27,0c-.2,4.69.64,9.74,1.38,14.27C161.56,165.46,163.31,164.15,163.64,163.87Z" style="fill:#263238"></path><path d="M186.76,150.84c-3.52,1.94-7.84-5.17-7.84-5.17s-13.86,3.77-20.31-8.55c0,0-2.17,12.8-9.24,16.63,0,0-5.42-16.58,4.66-23.77,0,0,12.23-9.82,24.4-1.92S189.12,149.53,186.76,150.84Z" style="fill:#263238"></path><path d="M158.18,136.19a15,15,0,0,0,3,5.59,15.74,15.74,0,0,0,5,4,13.16,13.16,0,0,0,1.49.65l.75.3.78.21c.53.12,1.05.27,1.58.38l1.6.19c.26,0,.53.06.8.07h.8l1.6,0c1.06-.12,2.11-.29,3.15-.47-1.07,0-2.11,0-3.16,0l-1.56-.12-.77-.06c-.26,0-.52-.09-.77-.14l-1.52-.28c-.5-.12-1-.28-1.49-.43l-.74-.21-.71-.3a14.53,14.53,0,0,1-1.4-.62,18.15,18.15,0,0,1-4.93-3.65,19,19,0,0,1-2-2.39A18.27,18.27,0,0,1,158.18,136.19Z" style="fill:#263238"></path><path d="M187.54,150.84c.11,2.94,1.81-11.83,1.2-13.79s-7.16-10.57-16.59-12.33c-7.9-1.48-15.74,3.34-17.1,4.2a12.42,12.42,0,0,0-3.69,3.36s10.12-6,20.39-5.89C176.7,126.44,187.13,139.8,187.54,150.84Z" style="fill:#3468DD"></path><path d="M175.45,122.83s-3.83-5.25-9.48-5.44c0,0,.66,5.53,2.77,7.2,1,.84,5.46.87,5.92.1A10.43,10.43,0,0,0,175.45,122.83Z" style="fill:#3468DD"></path><path d="M171.94,125.24a7.45,7.45,0,0,0,2.26-.25l.14-.06.12-.06.1-.07.1-.11a9.57,9.57,0,0,0,.66-1.48c.07-.19.11-.33.13-.37h0a12.44,12.44,0,0,0-1.54-1.71,3.72,3.72,0,0,0-1.55,1.67A13.34,13.34,0,0,0,171.94,125.24Z" style="fill:#050400;opacity:0.1"></path><path d="M176.87,123.48s7.71-1.81,11.59-.41c0,0-1.73,4.22-5.55,5.53-1.72.59-7.08-2.19-6.88-3.13A8.1,8.1,0,0,1,176.87,123.48Z" style="fill:#3468DD"></path><path d="M176.05,125.66a4.16,4.16,0,0,0,1.7,1.42,3.67,3.67,0,0,0,.94-1.36,4.63,4.63,0,0,0-.05-2.59c-1.07.19-1.77.36-1.77.36a7.94,7.94,0,0,0-.84,2,.53.53,0,0,0,0,.12A.06.06,0,0,0,176.05,125.66Z" style="fill:#050400;opacity:0.1"></path><path d="M177.83,125.19a2.57,2.57,0,1,1-1.37-3.37A2.58,2.58,0,0,1,177.83,125.19Z" style="fill:#3468DD"></path><path d="M183.44,151.22s2.18-7.61,5.49-7,3.15,10.58.29,12.92a3.52,3.52,0,0,1-5.07-.25Z" style="fill:#f7a9a0"></path><path d="M188.81,147.05c.05,0,.09,0,.05.08-2,1.72-2.45,4.26-2.54,6.75a1.94,1.94,0,0,1,2.58-1.44c.07,0,0,.13,0,.14a2.17,2.17,0,0,0-2,1.49,10.64,10.64,0,0,0-.45,2.19c0,.24-.44.26-.45,0v-.06C184.91,153.29,185.77,148.42,188.81,147.05Z" style="fill:#263238"></path></g><g id="freepik--musical-notes--inject-106"><path d="M237.58,115.46a4.74,4.74,0,1,1-3.78-5.55A4.75,4.75,0,0,1,237.58,115.46Z" style="fill:#455a64"></path><rect x="236.22" y="91.43" width="3.62" height="23.85" transform="translate(23.5 -42.65) rotate(10.77)" style="fill:#455a64"></rect><path d="M254,111.55a4.74,4.74,0,1,1-3.77-5.55A4.74,4.74,0,0,1,254,111.55Z" style="fill:#455a64"></path><rect x="252.6" y="87.52" width="3.62" height="23.85" transform="translate(23.05 -45.77) rotate(10.77)" style="fill:#455a64"></rect><polygon points="258.41 88.11 237.89 94.43 238.48 91.3 259.01 84.98 258.41 88.11" style="fill:#455a64"></polygon><polygon points="257.29 94.02 236.76 100.33 237.36 97.2 257.88 90.88 257.29 94.02" style="fill:#455a64"></polygon><path d="M239.1,195.53a2.64,2.64,0,1,1-2.1-3.09A2.65,2.65,0,0,1,239.1,195.53Z" style="fill:#455a64"></path><rect x="238.35" y="182.15" width="2.02" height="13.28" transform="translate(39.47 -41.38) rotate(10.76)" style="fill:#455a64"></rect><path d="M248.22,193.35a2.64,2.64,0,1,1-2.11-3.09A2.65,2.65,0,0,1,248.22,193.35Z" style="fill:#455a64"></path><rect x="247.46" y="179.97" width="2.02" height="13.28" transform="translate(39.24 -43.13) rotate(10.77)" style="fill:#455a64"></rect><polygon points="250.7 180.31 239.27 183.82 239.6 182.08 251.03 178.56 250.7 180.31" style="fill:#455a64"></polygon><path d="M221.91,163a4.74,4.74,0,1,1-3.78-5.55A4.75,4.75,0,0,1,221.91,163Z" style="fill:#455a64"></path><rect x="220.55" y="138.98" width="3.62" height="23.85" transform="translate(32.11 -38.89) rotate(10.77)" style="fill:#455a64"></rect><rect x="235.37" y="135.4" width="3.62" height="6.89" transform="translate(30.12 -41.87) rotate(10.77)" style="fill:#455a64"></rect><polygon points="239.44 136.69 222.22 141.98 222.81 138.85 240.03 133.56 239.44 136.69" style="fill:#455a64"></polygon><polygon points="238.32 142.6 221.09 147.89 221.69 144.75 238.91 139.47 238.32 142.6" style="fill:#455a64"></polygon></g><g id="freepik--Table--inject-106"><polygon points="135.04 332.87 134.85 343.29 132.76 421.29 130.41 421.29 128.32 343.29 128.13 332.87 135.04 332.87" style="fill:#455a64"></polygon><polygon points="128.13 332.87 135.04 332.87 134.85 343.29 128.32 343.29 128.13 332.87" style="fill:#263238"></polygon><polygon points="242.11 332.87 241.92 343.29 239.83 421.29 237.48 421.29 235.39 343.29 235.2 332.87 242.11 332.87" style="fill:#455a64"></polygon><polygon points="242.11 332.87 241.92 343.29 235.39 343.29 235.2 332.87 242.11 332.87" style="fill:#263238"></polygon><polygon points="94.06 332.87 93.87 343.29 91.78 421.29 89.43 421.29 87.34 343.29 87.15 332.87 94.06 332.87" style="fill:#455a64"></polygon><polygon points="87.15 332.87 94.06 332.87 93.87 343.29 87.34 343.29 87.15 332.87" style="fill:#263238"></polygon><polygon points="201.12 332.87 200.93 343.29 198.84 421.29 196.49 421.29 194.4 343.29 194.21 332.87 201.12 332.87" style="fill:#455a64"></polygon><polygon points="194.21 332.87 201.12 332.87 200.93 343.29 194.4 343.29 194.21 332.87" style="fill:#263238"></polygon><rect x="79.31" y="322.98" width="168.44" height="13.57" style="fill:#455a64"></rect></g></svg>